# Blender v2.91.0 OBJ File: 'picklefork.blend'
# www.blender.org
mtllib picklefork.mtl
o Cube
v 0.100000 1.475046 -0.200000
v 0.075000 -2.516985 -0.150000
v 0.100000 1.475046 0.200000
v 0.075000 -2.516985 0.150000
v -0.100000 1.475046 -0.200000
v -0.075000 -2.516985 -0.150000
v -0.100000 1.475046 0.200000
v -0.075000 -2.516985 0.150000
v 0.100000 1.625046 -0.500000
v 0.100000 1.625046 0.500000
v -0.100000 1.625046 -0.500000
v -0.100000 1.625046 0.500000
v 0.075000 2.725046 -0.375000
v 0.075386 2.724907 0.375118
v -0.075000 2.725046 -0.375000
v -0.074999 2.725045 0.375000
v 0.088419 2.721421 0.003997
v 0.100000 1.625046 0.000000
v -0.068206 2.723050 0.002084
v -0.100000 1.625046 0.000000
v -0.100000 1.625046 0.250000
v 0.100000 1.725046 0.250000
v -0.100000 1.725046 0.250000
v 0.100000 1.725046 -0.250000
v -0.100000 1.625046 -0.250000
v -0.100000 1.725046 -0.250000
v 0.100000 1.625046 -0.250000
v 0.100000 1.625046 0.250000
v 0.078581 2.723947 0.282510
v -0.073745 2.724632 0.281667
v -0.100000 1.725046 0.125000
v 0.100000 1.725046 0.125000
v 0.100000 1.725046 -0.125000
v -0.100000 1.725046 -0.125000
v 0.075781 2.724781 -0.281033
v -0.074942 2.725025 -0.281232
v 0.100000 1.625046 -0.375000
v 0.100000 1.625046 -0.125000
v 0.100000 1.625046 0.125000
v 0.100000 1.625046 0.375000
v -0.100000 1.625046 0.375000
v -0.100000 1.625046 0.125000
v -0.100000 1.625046 -0.125000
v -0.100000 1.625046 -0.375000
v -0.100000 1.625046 0.062500
v -0.067996 2.722996 0.049093
v 0.088685 2.721357 0.051074
v 0.087103 2.721735 -0.043380
v -0.069090 2.723281 -0.045120
v -0.100000 1.625046 -0.062500
v 0.100000 1.625046 0.062500
v 0.100000 1.625046 -0.062500
v -0.069014 3.298886 -0.333369
v 0.336732 2.893964 0.706954
v 0.414304 3.050616 0.520323
v 0.268858 3.157528 0.127370
v 0.173745 3.157819 -0.128536
v 0.134128 3.145596 -0.335295
v 0.150589 3.138138 -0.510674
v 0.178348 3.117803 -0.661926
v 0.170122 3.076474 -0.788430
v 0.464703 2.903361 0.510672
v 0.417921 2.969819 0.195252
v 0.291550 2.950291 -0.114495
v 0.248497 2.959981 -0.345672
v 0.261232 2.976187 -0.520601
v 0.274966 2.987815 -0.667211
v 0.223142 2.965546 -0.785906
v 0.061082 2.960694 -0.841137
v 0.424918 2.744216 0.553394
v 0.412220 2.687207 0.298740
v 0.299577 2.705924 -0.155719
v 0.252013 2.753350 -0.383435
v 0.262450 2.795907 -0.534779
v 0.248348 2.826792 -0.672819
v 0.188095 2.857081 -0.786914
v 0.283782 2.609507 0.628327
v 0.135388 2.498972 0.308706
v -0.058716 2.506975 -0.177021
v -0.067684 2.592582 -0.389104
v 0.001445 2.651790 -0.536328
v 0.059469 2.703990 -0.679832
v 0.067490 2.782447 -0.796723
v 0.059777 2.626612 0.721228
v -0.231710 2.557358 0.327241
v -0.424621 2.594442 -0.175207
v -0.385743 2.698744 -0.394150
v -0.315334 2.740419 -0.543253
v -0.216031 2.763090 -0.684236
v -0.101131 2.832582 -0.799934
v -0.068759 2.873738 0.720898
v -0.506007 2.914743 0.211935
v -0.485179 2.971623 -0.152319
v -0.475534 2.995070 -0.355266
v -0.456170 2.977071 -0.532887
v -0.361019 2.975777 -0.688038
v -0.171469 2.974662 -0.798140
v -0.045128 3.156935 0.535739
v -0.338858 3.244056 0.088802
v -0.342364 3.306143 -0.137277
v -0.354104 3.323147 -0.333570
v -0.315895 3.271593 -0.520963
v -0.231933 3.200033 -0.678815
v -0.107685 3.103752 -0.794808
v 0.245922 3.159597 0.543647
v 0.012102 3.287102 0.076384
v -0.032979 3.336039 -0.153330
v -0.052104 3.253460 -0.505504
v -0.003251 3.202892 -0.663113
v 0.037884 3.131756 -0.788637
vt 0.005844 0.540231
vt 0.064548 0.486438
vt 0.064540 0.510898
vt 0.000750 0.929848
vt 0.999955 0.942363
vt 0.999015 0.992414
vt 0.000045 0.967383
vt 0.999968 0.796139
vt 0.000032 0.808663
vt 0.000032 0.708471
vt 0.999968 0.720996
vt 0.003376 0.988984
vt 0.003376 0.958970
vt 0.063406 0.958970
vt 0.063406 0.988984
vt 0.000750 0.854760
vt 0.999955 0.842245
vt 0.000045 0.817225
vt 0.999015 0.792195
vt 0.050257 0.573768
vt 0.050253 0.534966
vt 0.391442 0.506234
vt 0.391762 0.534997
vt 0.003682 0.480645
vt 0.050240 0.437955
vt 0.050242 0.457357
vt 0.089223 0.973735
vt 0.015255 0.973745
vt 0.015239 0.849697
vt 0.089207 0.849687
vt 0.087274 0.115008
vt 0.087274 0.026183
vt 0.236239 0.026183
vt 0.236239 0.115008
vt 0.079907 0.440246
vt 0.024431 0.440253
vt 0.024448 0.405574
vt 0.080192 0.405492
vt 0.064494 0.657622
vt 0.064510 0.608717
vt 0.494992 0.572217
vt 0.494984 0.608901
vt 0.000216 0.000024
vt 0.059500 0.000313
vt 0.050605 0.328392
vt 0.006028 0.328219
vt 0.050237 0.418553
vt 0.003661 0.356477
vt 0.390593 0.419740
vt 0.050233 0.399152
vt 0.390693 0.405028
vt 0.057659 0.999226
vt 0.011232 0.999976
vt 0.011240 0.986041
vt 0.057684 0.985272
vt 0.050203 0.263339
vt 0.050213 0.302142
vt 0.494331 0.461194
vt 0.064551 0.461983
vt 0.064551 0.437528
vt 0.494313 0.442801
vt 0.005853 0.383729
vt 0.103658 0.364149
vt 0.064535 0.364157
vt 0.064526 0.315249
vt 0.494854 0.351623
vt 0.059308 0.652065
vt 0.000024 0.652372
vt 0.006271 0.355887
vt 0.051425 0.355848
vt 0.103649 0.559821
vt 0.064524 0.559809
vt 0.103666 0.510917
vt 0.035582 0.609602
vt 0.000130 0.609779
vt 0.000019 0.587621
vt 0.035471 0.587444
vt 0.081263 0.340940
vt 0.050221 0.340946
vt 0.391684 0.331199
vt 0.081290 0.496156
vt 0.050247 0.496160
vt 0.081285 0.457354
vt 0.059500 0.689117
vt 0.000216 0.689424
vt 0.477128 0.035556
vt 0.477128 0.109525
vt 0.106758 0.098093
vt 0.107276 0.040322
vt 0.391762 0.302029
vt 0.015255 0.035556
vt 0.089223 0.035571
vt 0.081271 0.379742
vt 0.050229 0.379750
vt 0.390574 0.434354
vt 0.064515 0.266345
vt 0.494992 0.315106
vt 0.103673 0.413052
vt 0.064545 0.413068
vt 0.494410 0.479666
vt 0.089310 0.097415
vt 0.089767 0.039483
vt 0.595958 0.125231
vt 0.681836 0.189760
vt 0.602945 0.203804
vt 0.717530 0.281182
vt 0.730225 0.390694
vt 0.599149 0.345043
vt 0.605490 0.264831
vt 0.714692 0.501858
vt 0.666364 0.609632
vt 0.507903 0.551631
vt 0.569500 0.442287
vt 0.563056 0.723925
vt 0.310730 0.808533
vt 0.262021 0.753229
vt 0.408170 0.659814
vt 0.189797 0.806854
vt 0.215657 0.726782
vt 0.296342 0.633940
vt 0.538488 0.239465
vt 0.554980 0.190481
vt 0.456204 0.382435
vt 0.505522 0.299783
vt 0.382754 0.493633
vt 0.479014 0.200624
vt 0.521605 0.158097
vt 0.363099 0.304019
vt 0.428522 0.248071
vt 0.162892 0.617041
vt 0.276328 0.406790
vt 0.153622 0.727011
vt 0.048142 0.763261
vt 0.495492 0.082600
vt 0.312958 0.128892
vt 0.409021 0.102611
vt 0.107367 0.240815
vt 0.213923 0.155802
vt 0.000085 0.542227
vt 0.214862 0.919080
vt 0.191182 0.847185
vt 0.309066 0.787308
vt 0.310674 0.850519
vt 0.178696 0.770052
vt 0.145836 0.670847
vt 0.283680 0.657725
vt 0.304156 0.729846
vt 0.114997 0.445172
vt 0.137717 0.280184
vt 0.246028 0.297143
vt 0.252246 0.494246
vt 0.257394 0.967848
vt 0.324135 0.922407
vt 0.031625 0.911425
vt 0.580679 0.000085
vt 0.393113 0.822746
vt 0.395724 0.907981
vt 0.398824 0.717800
vt 0.392182 0.768894
vt 0.380632 0.556702
vt 0.394670 0.658674
vt 0.178920 0.999915
vt 0.687061 0.015068
vt 0.371034 0.316872
vt 0.496861 0.720074
vt 0.486416 0.776843
vt 0.491694 0.587886
vt 0.503391 0.661320
vt 0.372600 0.946958
vt 0.730225 0.102537
vt 0.474793 0.837771
vt 0.507708 0.382199
vt 0.459938 0.913425
vt 0.575737 0.821206
vt 0.546308 0.894179
vt 0.621267 0.663135
vt 0.600949 0.743996
vt 0.621267 0.324529
vt 0.620423 0.559787
vt 0.513692 0.953885
vn -1.0000 -0.0000 0.0000
vn 0.0000 -0.0125 0.9999
vn -1.0000 -0.0063 0.0000
vn 0.0000 -1.0000 0.0000
vn 1.0000 -0.0063 0.0000
vn 0.0000 -0.0125 -0.9999
vn 0.9996 0.0224 0.0146
vn 1.0000 -0.0000 0.0000
vn 0.0000 -0.8944 -0.4472
vn 0.0000 -0.8944 0.4472
vn 0.0008 1.0000 0.0015
vn -0.9997 0.0227 0.0003
vn -0.0003 0.1129 0.9936
vn 0.0000 0.1129 -0.9936
vn 0.9999 0.0113 -0.0119
vn 0.0104 0.9999 0.0012
vn -0.9996 0.0291 0.0019
vn -0.9996 0.0233 0.0187
vn 0.0025 0.0321 -0.9995
vn 0.0000 1.0000 0.0000
vn 0.9996 0.0215 -0.0172
vn 0.0027 1.0000 -0.0073
vn 0.0052 0.0806 -0.9967
vn 0.9997 0.0227 -0.0035
vn -0.0005 0.0311 0.9995
vn 0.9998 0.0093 -0.0149
vn 0.9997 0.0190 0.0152
vn -0.9997 0.0227 -0.0058
vn -0.9989 0.0252 0.0403
vn -0.9996 0.0223 -0.0178
vn -0.9988 0.0262 -0.0419
vn -0.0052 0.0750 0.9972
vn 0.0101 0.9999 0.0055
vn -0.9996 0.0285 0.0081
vn 0.9999 0.0104 -0.0024
vn 0.9998 0.0105 0.0168
vn 0.1298 0.3070 -0.9428
vn 0.4599 0.8835 -0.0888
vn 0.6211 0.7529 -0.2176
vn 0.4881 0.8725 0.0226
vn 0.3862 0.8601 -0.3334
vn 0.5495 0.8322 -0.0739
vn 0.5604 0.8245 -0.0782
vn 0.4647 0.5736 0.6746
vn 0.8622 0.4938 -0.1131
vn 0.8013 0.5014 -0.3263
vn 0.8387 0.5381 0.0833
vn 0.8118 0.4789 -0.3342
vn 0.8076 0.2411 0.5381
vn 0.3164 0.1298 -0.9397
vn 0.8140 0.5728 0.0966
vn 0.8502 0.5005 -0.1634
vn 0.8818 -0.1912 -0.4311
vn 0.9975 0.0026 0.0713
vn 0.9540 -0.0310 -0.2983
vn 0.8374 -0.0636 0.5429
vn 0.3237 -0.0958 -0.9413
vn 0.9972 -0.0735 -0.0123
vn 0.9808 0.0578 -0.1865
vn 0.9851 -0.1362 -0.1050
vn 0.6603 -0.3118 0.6832
vn 0.2186 -0.2285 -0.9487
vn 0.5052 -0.8459 -0.1708
vn 0.4551 -0.8344 -0.3109
vn 0.6175 -0.7846 0.0557
vn 0.4954 -0.7374 -0.4592
vn 0.4594 -0.8709 -0.1744
vn 0.5134 -0.8366 -0.1913
vn -0.2193 -0.9068 -0.3599
vn -0.2473 -0.8802 -0.4050
vn -0.0687 -0.9565 0.2834
vn -0.1824 -0.7831 -0.5945
vn -0.2592 -0.8705 -0.4184
vn -0.1942 -0.9805 0.0313
vn 0.3441 -0.3091 0.8866
vn -0.0539 -0.2432 -0.9685
vn -0.5175 -0.3186 -0.7942
vn -0.8922 -0.3610 -0.2713
vn -0.9077 -0.3965 0.1372
vn 0.0334 0.0187 0.9993
vn -0.1859 -0.0796 -0.9793
vn -0.7285 -0.4559 -0.5113
vn -0.9648 -0.1996 -0.1714
vn -0.7186 -0.3658 0.5914
vn -0.8960 0.3883 -0.2153
vn -0.9006 0.4304 0.0603
vn 0.0015 0.5471 0.8370
vn -0.1742 0.1113 -0.9784
vn -0.7475 0.4094 -0.5231
vn -0.9288 0.3681 0.0422
vn -0.6586 0.4918 0.5695
vn -0.4949 0.2991 -0.8158
vn -0.0155 0.2914 -0.9565
vn 0.0507 0.9384 -0.3419
vn -0.0109 0.9986 -0.0521
vn -0.0666 0.9621 0.2643
vn -0.0327 0.8108 -0.5844
vn 0.0816 0.9653 -0.2479
vn -0.0960 0.9647 0.2452
vn -0.0280 0.5166 0.8558
usemtl Material
s off
f 5/1/1 50/2/1 43/3/1
f 4/4/2 3/5/2 7/6/2 8/7/2
f 8/8/3 7/9/3 5/10/3 6/11/3
f 6/12/4 2/13/4 4/14/4 8/15/4
f 2/16/5 1/17/5 3/5/5 4/4/5
f 6/18/6 5/19/6 1/17/6 2/16/6
f 10/20/7 40/21/7 29/22/7 14/23/7
f 3/24/8 51/25/8 39/26/8
f 1/27/9 5/28/9 11/29/9 9/30/9
f 7/31/10 3/32/10 10/33/10 12/34/10
f 13/35/11 15/36/11 36/37/11 35/38/11
f 11/39/12 44/40/12 36/41/12 15/42/12
f 12/43/13 10/44/13 14/45/13 16/46/13
f 9/30/14 11/29/14 15/36/14 13/35/14
f 18/47/8 3/24/8 1/48/8
f 17/49/15 18/47/15 52/50/15 48/51/15
f 17/52/16 19/53/16 46/54/16 47/55/16
f 1/48/8 9/56/8 37/57/8
f 19/58/17 20/59/17 45/60/17 46/61/17
f 20/59/1 7/62/1 45/60/1
f 20/59/1 5/1/1 7/62/1
f 23/63/18 21/64/18 41/65/18 30/66/18
f 22/67/19 23/68/19 30/69/19 29/70/19
f 26/71/1 25/72/1 43/3/1 34/73/1
f 24/74/20 26/75/20 34/76/20 33/77/20
f 24/78/21 27/79/21 37/57/21 35/80/21
f 22/81/8 28/82/8 39/26/8 32/83/8
f 29/70/22 30/69/22 16/46/22 14/45/22
f 32/84/20 31/85/20 23/68/20 22/67/20
f 33/86/23 34/87/23 49/88/23 48/89/23
f 35/80/24 37/57/24 9/56/24 13/90/24
f 35/38/25 36/37/25 26/91/25 24/92/25
f 33/93/8 38/94/8 27/79/8 24/78/8
f 32/83/26 39/26/26 51/25/26 47/95/26
f 29/22/27 40/21/27 28/82/27 22/81/27
f 30/66/28 41/65/28 12/96/28 16/97/28
f 31/98/1 42/99/1 21/64/1 23/63/1
f 34/73/29 43/3/29 50/2/29 49/100/29
f 36/41/30 44/40/30 25/72/30 26/71/30
f 42/99/1 7/62/1 21/64/1
f 21/64/1 7/62/1 41/65/1
f 41/65/1 7/62/1 12/96/1
f 43/3/1 25/72/1 5/1/1
f 25/72/1 44/40/1 5/1/1
f 5/1/1 44/40/1 11/39/1
f 37/57/8 27/79/8 1/48/8
f 27/79/8 38/94/8 1/48/8
f 28/82/8 40/21/8 3/24/8
f 40/21/8 10/20/8 3/24/8
f 39/26/8 28/82/8 3/24/8
f 1/48/8 38/94/8 52/50/8
f 46/61/31 45/60/31 42/99/31 31/98/31
f 47/55/32 46/54/32 31/85/32 32/84/32
f 48/89/33 49/88/33 19/101/33 17/102/33
f 49/100/34 50/2/34 20/59/34 19/58/34
f 45/60/1 7/62/1 42/99/1
f 50/2/1 5/1/1 20/59/1
f 51/25/8 3/24/8 18/47/8
f 47/95/35 51/25/35 18/47/35 17/49/35
f 48/51/36 52/50/36 38/94/36 33/93/36
f 52/50/8 18/47/8 1/48/8
f 69/103/37 110/104/37 61/105/37
f 109/106/38 108/107/38 59/108/38 60/109/38
f 53/110/39 107/111/39 57/112/39 58/113/39
f 106/114/40 105/115/40 55/116/40 56/117/40
f 110/104/41 109/106/41 60/109/41 61/105/41
f 108/107/42 53/110/42 58/113/42 59/108/42
f 107/111/43 106/114/43 56/117/43 57/112/43
f 105/115/44 54/118/44 55/116/44
f 56/117/45 55/116/45 62/119/45 63/120/45
f 61/105/46 60/109/46 67/121/46 68/122/46
f 59/108/47 58/113/47 65/123/47 66/124/47
f 57/112/48 56/117/48 63/120/48 64/125/48
f 55/116/49 54/118/49 62/119/49
f 69/103/50 61/105/50 68/122/50
f 60/109/51 59/108/51 66/124/51 67/121/51
f 58/113/52 57/112/52 64/125/52 65/123/52
f 68/122/53 67/121/53 75/126/53 76/127/53
f 66/124/54 65/123/54 73/128/54 74/129/54
f 64/125/55 63/120/55 71/130/55 72/131/55
f 62/119/56 54/118/56 70/132/56
f 69/103/57 68/122/57 76/127/57
f 67/121/58 66/124/58 74/129/58 75/126/58
f 65/123/59 64/125/59 72/131/59 73/128/59
f 63/120/60 62/119/60 70/132/60 71/130/60
f 70/132/61 54/118/61 77/133/61
f 69/103/62 76/127/62 83/134/62
f 75/126/63 74/129/63 81/135/63 82/136/63
f 73/128/64 72/131/64 79/137/64 80/138/64
f 71/130/65 70/132/65 77/133/65 78/139/65
f 76/127/66 75/126/66 82/136/66 83/134/66
f 74/129/67 73/128/67 80/138/67 81/135/67
f 72/131/68 71/130/68 78/139/68 79/137/68
f 82/140/69 81/141/69 88/142/69 89/143/69
f 80/144/70 79/145/70 86/146/70 87/147/70
f 78/148/71 77/149/71 84/150/71 85/151/71
f 83/152/72 82/140/72 89/143/72 90/153/72
f 81/141/73 80/144/73 87/147/73 88/142/73
f 79/145/74 78/148/74 85/151/74 86/146/74
f 77/133/75 54/118/75 84/154/75
f 69/103/76 83/134/76 90/155/76
f 90/153/77 89/143/77 96/156/77 97/157/77
f 88/142/78 87/147/78 94/158/78 95/159/78
f 86/146/79 85/151/79 92/160/79 93/161/79
f 84/154/80 54/118/80 91/162/80
f 69/103/81 90/155/81 97/163/81
f 89/143/82 88/142/82 95/159/82 96/156/82
f 87/147/83 86/146/83 93/161/83 94/158/83
f 85/151/84 84/150/84 91/164/84 92/160/84
f 95/159/85 94/158/85 101/165/85 102/166/85
f 93/161/86 92/160/86 99/167/86 100/168/86
f 91/162/87 54/118/87 98/169/87
f 69/103/88 97/163/88 104/170/88
f 96/156/89 95/159/89 102/166/89 103/171/89
f 94/158/90 93/161/90 100/168/90 101/165/90
f 92/160/91 91/164/91 98/172/91 99/167/91
f 97/157/92 96/156/92 103/171/92 104/173/92
f 69/103/93 104/170/93 110/104/93
f 103/171/94 102/166/94 108/174/94 109/175/94
f 101/165/95 100/168/95 107/176/95 53/177/95
f 99/167/96 98/172/96 105/178/96 106/179/96
f 104/173/97 103/171/97 109/175/97 110/180/97
f 102/166/98 101/165/98 53/177/98 108/174/98
f 100/168/99 99/167/99 106/179/99 107/176/99
f 98/169/100 54/118/100 105/115/100
