# Blender v2.91.0 OBJ File: 'picklefork.blend'
# www.blender.org
mtllib fork.mtl
o Cube
v 0.100000 1.475046 -0.200000
v 0.075000 -2.516985 -0.150000
v 0.100000 1.475046 0.200000
v 0.075000 -2.516985 0.150000
v -0.100000 1.475046 -0.200000
v -0.075000 -2.516985 -0.150000
v -0.100000 1.475046 0.200000
v -0.075000 -2.516985 0.150000
v 0.100000 1.625046 -0.500000
v 0.100000 1.625046 0.500000
v -0.100000 1.625046 -0.500000
v -0.100000 1.625046 0.500000
v 0.075000 2.725046 -0.375000
v 0.075386 2.724907 0.375118
v -0.075000 2.725046 -0.375000
v -0.074999 2.725045 0.375000
v 0.088419 2.721421 0.003997
v 0.100000 1.625046 0.000000
v -0.068206 2.723050 0.002084
v -0.100000 1.625046 0.000000
v -0.100000 1.625046 0.250000
v 0.100000 1.725046 0.250000
v -0.100000 1.725046 0.250000
v 0.100000 1.725046 -0.250000
v -0.100000 1.625046 -0.250000
v -0.100000 1.725046 -0.250000
v 0.100000 1.625046 -0.250000
v 0.100000 1.625046 0.250000
v 0.078581 2.723947 0.282510
v -0.073745 2.724632 0.281667
v -0.100000 1.725046 0.125000
v 0.100000 1.725046 0.125000
v 0.100000 1.725046 -0.125000
v -0.100000 1.725046 -0.125000
v 0.075781 2.724781 -0.281033
v -0.074942 2.725025 -0.281232
v 0.100000 1.625046 -0.375000
v 0.100000 1.625046 -0.125000
v 0.100000 1.625046 0.125000
v 0.100000 1.625046 0.375000
v -0.100000 1.625046 0.375000
v -0.100000 1.625046 0.125000
v -0.100000 1.625046 -0.125000
v -0.100000 1.625046 -0.375000
v -0.100000 1.625046 0.062500
v -0.067996 2.722996 0.049093
v 0.088685 2.721357 0.051074
v 0.087103 2.721735 -0.043380
v -0.069090 2.723281 -0.045120
v -0.100000 1.625046 -0.062500
v 0.100000 1.625046 0.062500
v 0.100000 1.625046 -0.062500
vt 0.231995 0.528285
vt 0.402923 0.371600
vt 0.402923 0.442820
vt 0.908299 0.789524
vt 0.138207 0.827836
vt 0.138207 0.521366
vt 0.908299 0.559689
vt 0.949406 0.436990
vt 0.044394 0.394390
vt 0.044394 0.735195
vt 0.949406 0.692591
vt 0.586790 0.567116
vt 0.661577 0.656386
vt 0.388570 0.953750
vt 0.313783 0.864481
vt 0.989117 0.625617
vt -0.010820 0.638141
vt -0.010820 0.537950
vt 0.989117 0.550475
vt 0.948048 0.706770
vt 0.058153 0.735058
vt 0.058153 0.508731
vt 0.948048 0.537038
vt 0.464733 0.647460
vt 0.384995 0.607371
vt 0.539094 0.513358
vt 0.539338 0.516323
vt 0.625000 0.750000
vt 0.625000 0.640625
vt 0.625000 0.656250
vt 0.625000 0.500000
vt 0.625000 0.250000
vt 0.625000 0.250000
vt 0.625000 0.500000
vt 0.625000 1.000000
vt 0.625000 0.750000
vt 0.625000 1.000000
vt 0.608016 0.985062
vt 0.676488 0.957982
vt 0.558517 0.952031
vt 0.833113 0.962101
vt 0.833113 0.315423
vt 0.703095 0.346837
vt 0.558520 0.667778
vt 0.548542 0.522199
vt 0.150461 0.275371
vt 0.625000 0.625000
vt 0.523092 0.369437
vt 0.376750 0.709070
vt 0.326310 0.670366
vt 0.528796 0.365548
vt 0.525724 0.374421
vt 0.531048 0.376042
vt 0.518106 0.374202
vt 0.625000 0.531250
vt 0.669378 0.792341
vt 0.611363 0.789840
vt 0.574112 0.405093
vt 0.373188 0.873942
vt 0.511324 0.405093
vt 0.775036 0.873942
vt 0.768696 0.449162
vt 0.927520 0.827470
vt 0.645140 0.661957
vt 0.551516 0.522365
vt 0.336901 0.369371
vt 0.365386 0.407280
vt 0.722598 0.399414
vt 0.563552 0.415798
vt 0.429377 0.412750
vt 0.546481 0.401128
vt 0.398088 0.410748
vt 0.086482 0.388232
vt 0.195892 0.322703
vt 0.389331 0.416799
vt 0.384642 0.417096
vt 0.372762 0.416612
vt 0.383107 0.416038
vt 0.407144 0.416266
vt 0.397327 0.416885
vt 0.527797 0.386570
vt 0.616299 0.517414
vt 0.520203 0.374479
vt 0.214528 0.411910
vt 0.485425 0.732378
vt 0.456162 0.769894
vt 0.428946 0.740347
vt 0.083719 0.643285
vt 0.414744 0.417119
vt 0.400268 0.417296
vt 0.972558 0.716695
vt 0.728030 0.786578
vt 0.448535 0.405093
vt 0.322957 0.405094
vt 0.197380 0.405094
vt 0.071802 0.405095
vt 0.402923 0.585261
vt 0.402923 0.727701
vt 0.402923 0.870141
vt 0.625000 0.562500
vt 0.625000 0.593750
vt 0.625000 0.687500
vt 0.625000 0.718750
vt 0.625000 0.609375
vt 0.574910 0.803041
vt 0.553412 0.747251
vt 0.402923 0.300380
vt 0.008597 0.462489
vn -1.0000 -0.0000 0.0000
vn 0.0000 -0.0125 0.9999
vn -1.0000 -0.0063 0.0000
vn 0.0000 -1.0000 0.0000
vn 1.0000 -0.0063 0.0000
vn 0.0000 -0.0125 -0.9999
vn 0.9996 0.0224 0.0146
vn 1.0000 -0.0000 0.0000
vn 0.0000 -0.8944 -0.4472
vn 0.0000 -0.8944 0.4472
vn 0.0008 1.0000 0.0015
vn -0.9997 0.0227 0.0003
vn -0.0003 0.1129 0.9936
vn 0.0000 0.1129 -0.9936
vn 0.9999 0.0113 -0.0119
vn 0.0104 0.9999 0.0012
vn -0.9996 0.0291 0.0019
vn -0.9996 0.0233 0.0187
vn 0.0025 0.0321 -0.9995
vn 0.0000 1.0000 0.0000
vn 0.9996 0.0215 -0.0172
vn 0.0027 1.0000 -0.0073
vn 0.0052 0.0806 -0.9967
vn 0.9997 0.0227 -0.0035
vn -0.0005 0.0311 0.9995
vn 0.9998 0.0093 -0.0149
vn 0.9997 0.0190 0.0152
vn -0.9997 0.0227 -0.0058
vn -0.9989 0.0252 0.0403
vn -0.9996 0.0223 -0.0178
vn -0.9988 0.0262 -0.0419
vn -0.0052 0.0750 0.9972
vn 0.0101 0.9999 0.0055
vn -0.9996 0.0285 0.0081
vn 0.9999 0.0104 -0.0024
vn 0.9998 0.0105 0.0168
usemtl Material
s off
f 5/1/1 50/2/1 43/3/1
f 4/4/2 3/5/2 7/6/2 8/7/2
f 8/8/3 7/9/3 5/10/3 6/11/3
f 6/12/4 2/13/4 4/14/4 8/15/4
f 2/16/5 1/17/5 3/18/5 4/19/5
f 6/20/6 5/21/6 1/22/6 2/23/6
f 10/24/7 40/25/7 29/26/7 14/27/7
f 3/28/8 51/29/8 39/30/8
f 1/31/9 5/32/9 11/33/9 9/34/9
f 7/35/10 3/28/10 10/36/10 12/37/10
f 13/38/11 15/39/11 36/40/11 35/41/11
f 11/42/12 44/43/12 36/40/12 15/39/12
f 12/44/13 10/24/13 14/27/13 16/45/13
f 9/46/14 11/42/14 15/39/14 13/38/14
f 18/47/8 3/28/8 1/31/8
f 17/48/15 18/49/15 52/50/15 48/51/15
f 17/48/16 19/52/16 46/53/16 47/54/16
f 1/31/8 9/34/8 37/55/8
f 19/52/17 20/56/17 45/57/17 46/53/17
f 20/58/1 7/59/1 45/60/1
f 20/58/1 5/61/1 7/59/1
f 23/62/18 21/63/18 41/64/18 30/65/18
f 22/66/19 23/62/19 30/65/19 29/26/19
f 26/67/1 25/68/1 43/69/1 34/70/1
f 24/71/20 26/67/20 34/70/20 33/72/20
f 24/71/21 27/73/21 37/74/21 35/41/21
f 22/75/8 28/76/8 39/77/8 32/78/8
f 29/26/22 30/65/22 16/45/22 14/27/22
f 32/78/20 31/79/20 23/80/20 22/75/20
f 33/81/23 34/82/23 49/83/23 48/51/23
f 35/41/24 37/74/24 9/46/24 13/38/24
f 35/41/25 36/40/25 26/67/25 24/71/25
f 33/72/8 38/84/8 27/73/8 24/71/8
f 32/85/26 39/86/26 51/87/26 47/54/26
f 29/26/27 40/25/27 28/88/27 22/66/27
f 30/65/28 41/64/28 12/44/28 16/45/28
f 31/79/1 42/89/1 21/90/1 23/80/1
f 34/82/29 43/91/29 50/92/29 49/83/29
f 36/40/30 44/43/30 25/68/30 26/67/30
f 42/93/1 7/59/1 21/94/1
f 21/94/1 7/59/1 41/95/1
f 41/95/1 7/59/1 12/96/1
f 43/3/1 25/97/1 5/1/1
f 25/97/1 44/98/1 5/1/1
f 5/1/1 44/98/1 11/99/1
f 37/55/8 27/100/8 1/31/8
f 27/100/8 38/101/8 1/31/8
f 28/102/8 40/103/8 3/28/8
f 40/103/8 10/36/8 3/28/8
f 39/30/8 28/102/8 3/28/8
f 1/31/8 38/101/8 52/104/8
f 46/53/31 45/57/31 42/105/31 31/106/31
f 47/54/32 46/53/32 31/106/32 32/85/32
f 48/51/33 49/83/33 19/52/33 17/48/33
f 49/83/34 50/92/34 20/56/34 19/52/34
f 45/60/1 7/59/1 42/93/1
f 50/2/1 5/1/1 20/107/1
f 51/29/8 3/28/8 18/47/8
f 47/54/35 51/87/35 18/49/35 17/48/35
f 48/51/36 52/50/36 38/108/36 33/81/36
f 52/104/8 18/47/8 1/31/8
