# Blender v2.91.0 OBJ File: 'picklefork.blend'
# www.blender.org
mtllib pickle.mtl
o Cube
v -0.069014 3.271085 -0.333369
v 0.336732 2.866163 0.706954
v 0.414304 3.022815 0.520323
v 0.268858 3.129727 0.127370
v 0.173745 3.130018 -0.128536
v 0.134128 3.117795 -0.335295
v 0.150589 3.110337 -0.510674
v 0.178348 3.090002 -0.661926
v 0.170122 3.048673 -0.788430
v 0.464703 2.875560 0.510672
v 0.417921 2.942018 0.195252
v 0.291550 2.922490 -0.114495
v 0.248497 2.932181 -0.345672
v 0.261232 2.948386 -0.520601
v 0.274966 2.960014 -0.667211
v 0.223142 2.937745 -0.785906
v 0.061082 2.932893 -0.841137
v 0.424918 2.716415 0.553394
v 0.412220 2.659406 0.298740
v 0.299577 2.678123 -0.155719
v 0.252013 2.725549 -0.383435
v 0.262450 2.768106 -0.534779
v 0.248348 2.798991 -0.672819
v 0.188095 2.829281 -0.786914
v 0.283782 2.581706 0.628327
v 0.135388 2.471171 0.308706
v -0.058716 2.479175 -0.177021
v -0.067684 2.564781 -0.389104
v 0.001445 2.623989 -0.536328
v 0.059469 2.676189 -0.679832
v 0.067490 2.754646 -0.796723
v 0.059777 2.598811 0.721228
v -0.231710 2.529558 0.327241
v -0.424621 2.566641 -0.175207
v -0.385743 2.670944 -0.394150
v -0.315334 2.712618 -0.543253
v -0.216031 2.735289 -0.684236
v -0.101131 2.804781 -0.799934
v -0.068759 2.845937 0.720898
v -0.506007 2.886942 0.211935
v -0.485179 2.943823 -0.152319
v -0.475534 2.967270 -0.355266
v -0.456170 2.949270 -0.532887
v -0.361019 2.947976 -0.688038
v -0.171469 2.946861 -0.798140
v -0.045128 3.129134 0.535739
v -0.338858 3.216255 0.088802
v -0.342364 3.278343 -0.137277
v -0.354104 3.295346 -0.333570
v -0.315895 3.243792 -0.520963
v -0.231933 3.172232 -0.678815
v -0.107685 3.075952 -0.794808
v 0.245922 3.131796 0.543647
v 0.012102 3.259301 0.076384
v -0.032979 3.308239 -0.153330
v -0.052104 3.225659 -0.505504
v -0.003251 3.175091 -0.663113
v 0.037884 3.103955 -0.788637
vt 0.676892 0.015326
vt 0.736889 0.043870
vt 0.616894 0.043870
vt 0.736889 0.072414
vt 0.736889 0.100959
vt 0.616894 0.100959
vt 0.616894 0.072414
vt 0.736889 0.129503
vt 0.736889 0.158048
vt 0.616894 0.158048
vt 0.616894 0.129503
vt 0.642008 0.177082
vt 0.372236 0.137331
vt 0.398629 0.119788
vt 0.613455 0.137724
vt 0.826227 0.189024
vt 0.814303 0.146358
vt 0.285036 0.112252
vt 0.393731 0.106579
vt 0.560560 0.110494
vt 0.496900 0.072414
vt 0.496900 0.043870
vt 0.496900 0.129503
vt 0.496900 0.100959
vt 0.798389 0.109328
vt 0.556897 0.015326
vt 0.496900 0.158048
vt 0.376905 0.072414
vt 0.376905 0.043870
vt 0.376905 0.129503
vt 0.376905 0.100959
vt 0.476236 0.080392
vt 0.815041 0.072364
vt 0.346725 0.093918
vt 0.436902 0.015326
vt 0.376905 0.158048
vt 0.228217 0.077681
vt 0.316908 0.015326
vt 0.256910 0.043870
vt 0.256910 0.100959
vt 0.256910 0.072414
vt 0.256910 0.158048
vt 0.256910 0.129503
vt 0.429742 0.037525
vt 0.826227 0.011810
vt 0.136915 0.100959
vt 0.136915 0.072414
vt 0.812710 0.219592
vt 0.673705 0.224390
vt 0.683027 0.169237
vt 0.812609 0.165081
vt 0.256910 0.186592
vt 0.256910 0.215136
vt 0.136915 0.215136
vt 0.136915 0.186592
vt 0.136915 0.043870
vt 0.136915 0.129503
vt 0.374953 0.241943
vt 0.400294 0.182763
vt 0.052795 0.094317
vt 0.196913 0.015326
vt 0.016921 0.072414
vt 0.016921 0.043870
vt 0.016921 0.129503
vt 0.016921 0.100959
vt 0.517871 0.122695
vt 0.700195 0.116255
vt 0.062714 0.136123
vt 0.076918 0.015326
vt 0.814055 0.115795
vt 0.103408 0.169659
vt 0.154834 0.125461
vt 0.976878 0.100959
vt 0.976878 0.129503
vt 0.856884 0.129503
vt 0.856884 0.100959
vt 0.565765 0.068065
vt 0.700116 0.060283
vt 0.262824 0.168574
vt 0.916881 0.015326
vt 0.976878 0.043870
vt 0.856884 0.043870
vt 0.976878 0.072414
vt 0.856884 0.072414
vt 0.814055 0.060331
vt 0.244494 0.073206
vt 0.796886 0.015326
vt 0.856884 0.158048
vt 0.568996 0.227643
vt 0.533253 0.011970
vt 0.673252 0.010863
vn 0.1298 0.3070 -0.9428
vn 0.4599 0.8835 -0.0888
vn 0.6211 0.7529 -0.2176
vn 0.4881 0.8725 0.0226
vn 0.3862 0.8601 -0.3334
vn 0.5495 0.8322 -0.0739
vn 0.5604 0.8245 -0.0782
vn 0.4647 0.5736 0.6746
vn 0.8622 0.4938 -0.1131
vn 0.8013 0.5014 -0.3263
vn 0.8387 0.5381 0.0833
vn 0.8118 0.4789 -0.3342
vn 0.8076 0.2411 0.5381
vn 0.3164 0.1298 -0.9397
vn 0.8140 0.5728 0.0966
vn 0.8502 0.5005 -0.1634
vn 0.8818 -0.1912 -0.4311
vn 0.9975 0.0026 0.0713
vn 0.9540 -0.0310 -0.2983
vn 0.8374 -0.0636 0.5429
vn 0.3237 -0.0958 -0.9413
vn 0.9972 -0.0735 -0.0123
vn 0.9808 0.0578 -0.1865
vn 0.9851 -0.1362 -0.1050
vn 0.6603 -0.3118 0.6832
vn 0.2186 -0.2285 -0.9487
vn 0.5052 -0.8459 -0.1708
vn 0.4551 -0.8344 -0.3109
vn 0.6175 -0.7846 0.0557
vn 0.4954 -0.7374 -0.4592
vn 0.4594 -0.8709 -0.1744
vn 0.5134 -0.8366 -0.1913
vn -0.2193 -0.9068 -0.3599
vn -0.2473 -0.8802 -0.4050
vn -0.0687 -0.9565 0.2834
vn -0.1824 -0.7831 -0.5945
vn -0.2592 -0.8705 -0.4184
vn -0.1942 -0.9805 0.0313
vn 0.3441 -0.3091 0.8866
vn -0.0539 -0.2432 -0.9685
vn -0.5175 -0.3186 -0.7942
vn -0.8922 -0.3610 -0.2713
vn -0.9077 -0.3965 0.1372
vn 0.0334 0.0187 0.9993
vn -0.1859 -0.0796 -0.9793
vn -0.7285 -0.4559 -0.5113
vn -0.9648 -0.1996 -0.1714
vn -0.7186 -0.3658 0.5914
vn -0.8960 0.3883 -0.2153
vn -0.9006 0.4304 0.0603
vn 0.0015 0.5471 0.8370
vn -0.1742 0.1113 -0.9784
vn -0.7475 0.4094 -0.5231
vn -0.9288 0.3681 0.0422
vn -0.6586 0.4918 0.5695
vn -0.4949 0.2991 -0.8158
vn -0.0155 0.2914 -0.9565
vn 0.0507 0.9384 -0.3419
vn -0.0109 0.9986 -0.0521
vn -0.0666 0.9621 0.2643
vn -0.0327 0.8108 -0.5844
vn 0.0816 0.9653 -0.2479
vn -0.0960 0.9647 0.2452
vn -0.0280 0.5166 0.8558
usemtl Material
s off
f 17/1/1 58/2/1 9/3/1
f 57/4/2 56/5/2 7/6/2 8/7/2
f 1/8/3 55/9/3 5/10/3 6/11/3
f 54/12/4 53/13/4 3/14/4 4/15/4
f 58/2/5 57/4/5 8/7/5 9/3/5
f 56/5/6 1/8/6 6/11/6 7/6/6
f 55/16/7 54/12/7 4/15/7 5/17/7
f 53/13/8 2/18/8 3/14/8
f 4/15/9 3/14/9 10/19/9 11/20/9
f 9/3/10 8/7/10 15/21/10 16/22/10
f 7/6/11 6/11/11 13/23/11 14/24/11
f 5/17/12 4/15/12 11/20/12 12/25/12
f 3/14/13 2/18/13 10/19/13
f 17/26/14 9/3/14 16/22/14
f 8/7/15 7/6/15 14/24/15 15/21/15
f 6/11/16 5/10/16 12/27/16 13/23/16
f 16/22/17 15/21/17 23/28/17 24/29/17
f 14/24/18 13/23/18 21/30/18 22/31/18
f 12/25/19 11/20/19 19/32/19 20/33/19
f 10/19/20 2/18/20 18/34/20
f 17/35/21 16/22/21 24/29/21
f 15/21/22 14/24/22 22/31/22 23/28/22
f 13/23/23 12/27/23 20/36/23 21/30/23
f 11/20/24 10/19/24 18/34/24 19/32/24
f 18/34/25 2/18/25 25/37/25
f 17/38/26 24/29/26 31/39/26
f 23/28/27 22/31/27 29/40/27 30/41/27
f 21/30/28 20/36/28 27/42/28 28/43/28
f 19/32/29 18/34/29 25/37/29 26/44/29
f 24/29/30 23/28/30 30/41/30 31/39/30
f 22/31/31 21/30/31 28/43/31 29/40/31
f 20/33/32 19/32/32 26/44/32 27/45/32
f 30/41/33 29/40/33 36/46/33 37/47/33
f 28/48/34 27/49/34 34/50/34 35/51/34
f 26/52/35 25/53/35 32/54/35 33/55/35
f 31/39/36 30/41/36 37/47/36 38/56/36
f 29/40/37 28/43/37 35/57/37 36/46/37
f 27/49/38 26/58/38 33/59/38 34/50/38
f 25/37/39 2/18/39 32/60/39
f 17/61/40 31/39/40 38/56/40
f 38/56/41 37/47/41 44/62/41 45/63/41
f 36/46/42 35/57/42 42/64/42 43/65/42
f 34/50/43 33/59/43 40/66/43 41/67/43
f 32/60/44 2/18/44 39/68/44
f 17/69/45 38/56/45 45/63/45
f 37/47/46 36/46/46 43/65/46 44/62/46
f 35/51/47 34/50/47 41/67/47 42/70/47
f 33/59/48 32/71/48 39/72/48 40/66/48
f 43/73/49 42/74/49 49/75/49 50/76/49
f 41/67/50 40/66/50 47/77/50 48/78/50
f 39/68/51 2/18/51 46/79/51
f 17/80/52 45/81/52 52/82/52
f 44/83/53 43/73/53 50/76/53 51/84/53
f 42/70/54 41/67/54 48/78/54 49/85/54
f 40/66/55 39/72/55 46/86/55 47/77/55
f 45/81/56 44/83/56 51/84/56 52/82/56
f 17/87/57 52/82/57 58/2/57
f 51/84/58 50/76/58 56/5/58 57/4/58
f 49/75/59 48/88/59 55/9/59 1/8/59
f 47/89/60 46/79/60 53/13/60 54/12/60
f 52/82/61 51/84/61 57/4/61 58/2/61
f 50/76/62 49/75/62 1/8/62 56/5/62
f 48/78/63 47/77/63 54/90/63 55/91/63
f 46/79/64 2/18/64 53/13/64
